<?xml version="1.0" encoding="utf-8"?>
<!-- Generator: Adobe Illustrator 26.0.1, SVG Export Plug-In . SVG Version: 6.00 Build 0)  -->
<svg version="1.1" id="Lag_1" xmlns="http://www.w3.org/2000/svg" xmlns:xlink="http://www.w3.org/1999/xlink" x="0px" y="0px"
	 viewBox="0 0 368.5 226.8" style="enable-background:new 0 0 368.5 226.8;" xml:space="preserve">
<style type="text/css">
	.st0{display:none;}
	.st1{fill:#FFFFFF;stroke:#000000;stroke-miterlimit:10;}
	.st2{fill:none;stroke:#C69C6D;stroke-width:0.25;stroke-miterlimit:10;}
	.st3{fill:none;stroke:#000000;stroke-width:0.25;stroke-miterlimit:10;}
	.st4{fill:none;stroke:#006837;stroke-width:0.25;stroke-miterlimit:10;}
	.st5{fill:#03045E;stroke:#CAF0F8;stroke-width:0.25;stroke-miterlimit:10;}
	.st6{opacity:0.82;fill:#03045E;stroke:#CAF0F8;stroke-width:0.25;stroke-miterlimit:10;enable-background:new    ;}
	.st7{fill:none;stroke:#9E005D;stroke-width:0.25;stroke-miterlimit:10;}
	.st8{fill:none;stroke:#A67C52;stroke-width:0.25;stroke-miterlimit:10;}
	.st9{fill:none;stroke:#754C24;stroke-width:0.25;stroke-miterlimit:10;}
	.st10{fill:none;stroke:#FFD700;stroke-width:0.25;stroke-miterlimit:10;}
	.st11{fill:none;stroke:#603813;stroke-width:0.25;stroke-miterlimit:10;}
	.st12{fill:#CAF0F8;stroke:#CAF0F8;stroke-width:0.25;stroke-miterlimit:10;}
	.st13{opacity:0.48;fill:none;stroke:#8C6239;stroke-width:0.25;stroke-miterlimit:10;enable-background:new    ;}
	.st14{fill:#FFFFCC;stroke:#808080;stroke-width:0.25;stroke-miterlimit:10;}
</style>
<g id="Lag_1_00000047744582598503589540000001984636840953171112_">
</g>
<g id="Lag_2_00000079468420869650341610000010213804946920563626_" class="st0">
	
		<image style="display:inline;overflow:visible;enable-background:new    ;" width="3024" height="4032" xlink:href="../../Downloads/IMG_0624.JPG"  transform="matrix(5.815988e-02 0 0 5.815988e-02 0.2007 -0.3817)">
	</image>
</g>
<g id="Lag_4">
	<rect y="0" class="st1" width="369.1" height="226.5"/>
</g>
<g id="tegning">
	<path class="st2" d="M89,44c0,0.1,0,0.3-0.1,0.5c-0.3,1-1.1,1.2-1.5,2c-0.1,0.3-0.3,0.8-0.1,1.5"/>
	<path class="st3" d="M46.7,98"/>
	<path class="st3" d="M50.9,85.2"/>
	<path class="st3" d="M45.2,101.3"/>
	<path class="st3" d="M46,111.9"/>
	<path class="st3" d="M52.9,98.6"/>
	<path class="st4" d="M61,62c-0.7-0.2-1.7-0.3-2.6,0.2c-2,1.1-1,3.8-2.8,7.1c-2,3.5-5.2,4-5,6c0.2,1.6,2.2,2.3,1.8,3.7
		c-0.3,1.1-1.7,1.2-1.6,1.9c0.1,0.9,2.5,0.7,3.7,2.2c0.6,0.8,0.5,1.9,0.3,3.6"/>
	<path class="st5" d="M34.3,118.3"/>
	<path class="st6" d="M57.1,96.9c-1.3,0.1-1.7,4.6-3.3,13.8c-3.4,19.9-4.8,18.3-4.9,25.5c-0.2,11.2,3.1,15.6-0.5,19.7
		c-1.8,2.1-3.1,1.4-10.3,5.2c-7.3,3.9-9,6.3-10.7,5.5c-1.1-0.6-1.4-2.2-0.5-15.2c0.6-8.6,0.9-12.9,1.7-14.9
		c0.7-1.8,3.4-7.6,4.1-10.3c0.1-0.3,0.3-1.2,0.8-2.5c0.4-0.9,0.7-1.4,1.1-2.3c0.8-1.6,0.9-2.8,1.4-3.3"/>
	<path class="st4" d="M83.7,107.4c7.2,9.3,10.6,17.7,12.4,23.6c2.2,7.3,2.3,12.2,6.4,20.1c2.5,4.7,4.9,7.8,8.9,12.8
		c9.7,12.2,16.8,17.2,15.4,19.7c-0.4,0.8-1.4,0.7-8.4,1.2c-9.1,0.6-7.8,0.7-10.9,0.8c-8.4,0.3-14.9-0.5-18.4-0.8
		c-23.1-2.2-35.9,4-39.1-1.7c-0.2-0.3-0.1-0.2,0.1-12.3c0.1-5,0-6.4-0.2-8.7c-0.2-2.8-0.5-3.7-0.7-6.8c0,0-0.2-2.8-0.1-6.1
		c0.2-8.3,2.4-21.4,4.3-33.5c0.5-3.1,0.8-4.7,0.8-6.1c0.3-5.5-0.7-8.8,0.6-9.5"/>
	<line class="st3" x1="51.4" y1="78.3" x2="42.7" y2="92"/>
	<path class="st2" d="M72,42.6c-0.4-0.1-1.1-0.3-2-0.2c-0.6,0.1-1.9,0.2-2.4,1c-0.7,1.2,0.6,3.1,1.4,4c0.2,0.2,1.5,1.6,3.6,1.9
		c0.8,0.1,1.8,0,1.9-0.3c0.1-0.4-1.1-0.9-1.1-1.7c0-0.3,0.2-0.6,0-0.7c-0.2-0.2-0.4,0-0.6-0.1c-0.4-0.2-0.1-1.1-0.4-1.3
		s-0.6,0.3-0.9,0.1c-0.4-0.2,0.1-1.3-0.4-1.9c-0.4-0.4-1.3-0.4-1.9-0.1c-0.7,0.5-1,1.6-0.5,2.6"/>
	<path class="st7" d="M91.4,47.7c0.2,0.1,0.2,0.3,0.2,0.4c0,0.1,0,0.3-0.1,0.4c-0.2,0.3-0.7,0.2-1.4,0.1c-0.4-0.1-0.8-0.2-1.3-0.4
		c-0.2-0.1-0.3-0.2-0.5-0.5c-0.3-0.4-0.3-0.9-0.2-1c0.1,0,0.1,0.4,0.5,0.6c0.1,0.1,0.4,0.2,0.9,0.4c0,0,0,0,0.1,0
		c0.2,0.1,0.4,0.1,0.5,0.1c0.3,0,0.4-0.1,0.7-0.1C91.1,47.6,91.3,47.6,91.4,47.7z"/>
	<path class="st3" d="M89.5,43.8"/>
	<path class="st8" d="M90.3,38c0.3,1.1,0.9,1.6,1.2,2.1c0.6,1.1,1.2,1,1.7,1.5c0.4,0.3,0.1,0.8-0.2,1.1c-0.3,0.3-0.6,0.4-1.4,0.4
		c-0.4,0-0.6-0.1-0.8,0c-0.3,0.2-0.6,0.3-0.8,0.2"/>
	<path class="st3" d="M116.1,152.7"/>
	<path class="st8" d="M79.5,64.5c0-0.3,0-0.8,0.2-1.3c0.4-1.5,1.2-1.8,2-3.2c0.6-1.1,0.2-1.1,1-3.1c0.6-1.5,0.9-2.2,1.4-2.6
		c1-0.6,1.7,0.3,3.7,0.1c0.6-0.1,2.6-0.3,3.3-1.7c0.3-0.5,0.3-1.1,0.2-1.5c-0.1-0.5-0.2-0.9-0.3-1.4"/>
	<path class="st9" d="M84.2,25.6c-0.8,0.7-2,1.8-2.8,3.4c-1.1,2.2-0.4,3-1.1,4.9c-1.3,3.4-5.1,5.7-8.1,6.5c-2.1,0.6-3.1,0.3-4.1,1.4
		c-1.3,1.4-1.4,3.7-1,5.4c0.3,1.4,1.1,2.2,0.9,2.3s-2.6-1.8-2.9-4.4c-0.1-0.7-0.1-2,2.4-5.5c2.7-3.9,4.1-4.6,6.1-7.6
		c0.8-1.3,1.8-3.1,2.6-5.6"/>
	<line class="st3" x1="0" y1="0" x2="0" y2="0"/>
	<path class="st10" d="M137,138.5c0.4,1.4,0.1,2.2-0.2,2.6c-0.4,0.5-0.7,0.5-1.5,1.4c-0.6,0.6-0.9,1.2-1.1,1.6c-0.6,1.1-0.5,1.4-1,2
		c-0.3,0.4-0.9,0.9-1.9,1.2"/>
	<path class="st11" d="M39.3,98.7c-1.3,2.3-2.6,4.6-4.4,7.8"/>
	<path class="st11" d="M40.6,99c-2,3.7-4,7.3-6,11"/>
	<path class="st11" d="M40.3,101.5c-1.7,3.7-3.3,7.3-5,11"/>
	<path class="st8" d="M61.9,67.8c-2.7,3.6-3.1,6.5-3,8.4c0.1,1.1,0.4,1.7,0.6,3.1c0.6,3.2,0.5,6,0.2,8"/>
	<path class="st3" d="M88.6,50.6"/>
	<path class="st3" d="M84,45.3"/>
	<path class="st3" d="M83.9,46.6"/>
	<path class="st3" d="M103.2,59.5"/>
	<path class="st4" d="M78.1,100.3c-0.6,1.1-1.8,2.7-3.7,3.9c-4.3,2.6-10.9,2.1-12.4-0.9c-0.9-1.9,0.3-4.7,1.4-6.2
		c1.4-2,2.7-1.7,3.2-3.2c0.9-2.6-2.2-4.7-1.1-6.9c0.7-1.4,2.2-0.9,2.8-2.3c0.8-2-2.1-3.8-1.4-5.7c0.5-1.2,1.8-0.9,4.8-2.8
		c1.8-1.1,3-1.9,3.4-3.2c0.7-2.1-2.1-3.2-1.6-5.3c0.4-1.8,3-3.4,4.7-2.7c1,0.5,1.7,1.8,1.4,2.7c-0.4,1.3-2.7,1.2-2.7,2.1
		c-0.1,0.7,1.3,1.5,3.3,2.6c1.6,0.9,2.2,1,2.7,1.9c0.4,0.7,0.2,0.9,0.5,2.3c0.3,1.3,0.7,2.2,1.3,3.4c0.7,1.6,1.1,2.5,2,3.5
		c0.7,0.8,1,0.9,1.4,1.6c0.7,1.2,0.6,2,1.1,2.2c0.3,0.1,0.5-0.1,2-0.9s1.8-0.8,2-0.7c0.6,0.3,0.7,1.3,0.7,1.6c0,0.3,0,0.5,0,0.8
		c-0.1,0.8-0.4,1.4-1.2,3c-0.4,0.8-0.5,1.1-0.4,1.6c0.1,0.4,0.4,0.8,0.7,0.8c0.4,0,1-1,1.8-5.6"/>
	<path class="st4" d="M92.8,85.3c-0.5-0.1-1.9-0.3-3-1.4c-1.3-1.3-2-3.4-1.3-5c0.3-0.7,0.8-1.2,0.7-1.4c-0.3-0.4-1.5,0.5-2.1,0.1
		c-0.5-0.4,0-1.5,0.1-3.4c0-1.3,0.1-3.1-1-4c-0.9-0.8-2,0.3-3.9,0c-1.4-0.3-2.4-1.1-3.1-1.8"/>
	<path class="st4" d="M80,68.3c0.1-0.3,0.3-0.8,0.3-1.6c0-0.1-0.1-1.6-1.2-2.3C78,63.6,76.5,64,76,64.2c-2.7,0.8-4,4.1-4.4,4.8
		c-0.3,0.8-0.3,1.1-0.7,1.7c-1,1.5-1.9,1.2-3,2.4c-0.8,0.9-1.2,2-2,4.4c-0.5,1.5-0.4,1.5-0.7,2.1c-0.6,1-1.2,1.2-2.7,2.7
		c-1.1,1.1-1.7,1.6-1.8,2c-0.4,1.8,2.3,2.8,2.3,5c0,1.6-1.4,3.2-2.7,4c-1.2,0.7-2.2,0.6-2.9,1.6C57,95.5,57,96.3,57,96.8"/>
	<path class="st8" d="M71,90.7c0.4-0.6,0.7-0.7,0.9-0.7c1.4-0.1,2.5,3.7,3.1,4.8c4.2,9.1,13,14.8,17.1,23.4c0.4,0.9,1.3,3.5,3.8,5.6
		c1.5,1.2,3,1.7,3.4,1.9c2.9,1.1,11.1,6.3,29.7,20.5"/>
	<path class="st8" d="M134.2,136.7c-2.1-1.5-5.4-3.9-9.2-7c-4.1-3.3-3.8-3.4-6-5c-6.2-4.5-8.5-4.1-11.7-7.7
		c-1.6-1.8-0.9-1.7-3.7-6.4c-3.4-5.7-5.2-6.9-8.5-12.1c-1.3-2.1-3.2-5.2-5.1-9.5"/>
	<path class="st8" d="M137.8,141c2.2,1.5,4.4,3.1,6.5,4.6c0.9-0.2,2.9-0.4,5.3,0.5c1.9,0.7,3.1,1.9,3.7,2.5"/>
	<path class="st8" d="M133.2,146.6c1.3,0.3,3.1,0.9,4.7,2.3c1.7,1.6,1.4,2.5,2.9,4.4c1.3,1.6,3.3,3.8,8.1,4.9"/>
	<path class="st2" d="M84.7,24.6c-1.7-1.1-4.1-2.3-7.1-2.8c-2.6-0.4-4.7-0.2-6,0c-1.7,0.2-3.8,0.5-6.2,1.7c-0.4,0.2-6.9,3.5-6.6,7.1
		c0.1,1.1,0.4,2.1-0.2,2.6c-0.7,0.5-1.6-0.5-3.4-0.2c-1.9,0.2-3,1.6-3.2,1.8c-0.3,0.3-0.8,1-1,2.1c-0.2,1.8,1.1,3.2,1.5,3.6
		c0.1,0.1,1.9,1.7,3.7,1.2c0.9-0.2,1-0.8,1.5-0.7c1.1,0.2,0.6,2.9,2.1,5.3c1.7,2.6,3.9,1.9,5.9,4.9c0.3,0.5,1.2,2,1.2,4
		c0,1.6-0.6,2.7-1.7,4.7c-0.9,1.8-1.6,2.3-2.1,2.5c-0.7,0.4-1.4,0.4-1.8,0.4"/>
	<path class="st8" d="M90.2,33c-0.1-1.2-0.4-2.2-0.6-2.8c-0.5-1.3-1.2-2.1-1.8-2.9c-0.7-0.9-1.4-1.5-1.9-1.9"/>
	<path class="st11" d="M55.4,83.5"/>
	<path class="st11" d="M50.4,77.3c-0.6,1-3.8,6.2-5.8,9.2c-1.8,2.7-2.3,3.4-2.3,3.4c-0.4,0.7-0.8,1.4-1.3,2c-0.5,0.5-1,0.9-1,1.6
		c0,0.4,0.1,0.7,0.1,0.9c0.2,4-5.7,6.4-5,8.9c0.1,0.5,0.5,0.8,0.5,1.5c-0.1,0.9-1,1.2-1,2.1c0,0.7,0.4,0.7,0.5,1.4
		c0.1,1.2-0.9,1.6-0.7,2.6c0.2,0.6,0.7,0.6,0.9,1.2c0.3,1-1.1,1.7-1.1,2.8c0,1,1,2.2,1.9,2.3c3.4,0.6,9.4-13.1,7.1-14.9
		c-0.7-0.5-1.7,0.2-2.2-0.5c-0.8-0.9,0.7-2.6,1-5.7c0.2-2-0.7-2.9-0.1-3.4c0.6-0.6,1.8-0.2,5,0.9c2.2,0.8,4.9,2,6.4,2.5
		c0.9,0.3,1.8,0.5,1.8,0.5c0.6,0.2,0.7,0.1,0.8,0.2c0.4,0.3-1.5,5.4-2.1,5.2c-0.4-0.1,0.5-3,1.9-12.2c0.4-2.5,0.6-3.8,0.8-5.4"/>
	<path class="st12" d="M43.1,110.3c-1-0.7,7.5-9.2,9.3-23.5c0.3-2.2,0.1-1.9,0.4-4.2C54.4,70.5,60.3,61.7,61,62
		c1,0.4-6.8,19.6-7.3,28.6c0,0.9-0.1,2.6-0.8,4.8c-0.9,2.8-2,3.1-3.6,6.7c-1.2,2.6-0.9,3-1.9,4.5C45.8,108.8,43.6,110.6,43.1,110.3z
		"/>
	<path class="st11" d="M38.8,77.9"/>
	<path class="st10" d="M136.2,137.7c-1.4,0.2-2.1,0.7-2.4,1.2c-0.4,0.5-0.2,0.9-0.7,1.9c-0.4,0.8-0.8,1.3-1.1,1.7
		c-0.8,1-1.1,1-1.5,1.6c-0.2,0.4-0.5,1.1-0.4,2.2"/>
	<path class="st9" d="M90.6,34.9C90.4,35,90.2,35,90,35c-0.4-0.1-0.4-0.7-0.8-1c-0.7-0.7-2.3-0.3-3.4,0.5c-0.6,0.4-1,1-1.2,1.4"/>
	<path class="st13" d="M85.9,37.6c0.3-0.2,0.8,0.7,1.8,0.6c0.8,0,1.6-0.7,1.5-0.9c0-0.2-0.4-0.2-0.5-0.1c-0.1,0.2,0.5,0.9,0.5,0.9
		s0.4,0.4,0.4,0.5c-0.1,0.1-0.6-0.3-0.8-0.1c-0.2,0.1,0,0.5-0.1,0.6c-0.1,0-0.3-0.3-0.5-0.3s-0.3,0.5-0.5,0.5
		c-0.1,0-0.1-0.4-0.3-0.4c-0.2,0-0.4,0.5-0.5,0.5s-0.1-0.7-0.2-0.7c-0.2,0-0.3,0.7-0.6,0.7C85.9,39.2,85.6,37.9,85.9,37.6z"/>
	<path class="st7" d="M91.7,46.3c-0.1,0-0.2,0.1-0.4,0.2c0,0-0.3,0.2-1,0.4c-1,0.3-1.9-0.4-2.1-0.3c-0.1,0.1,0.3,0.7,0.9,0.9
		c0.3,0.1,0.6,0.1,1.2,0.1s0.9,0,1.1-0.1C92,47.2,91.9,46.4,91.7,46.3z"/>
	<path class="st14" d="M65.7,60c0.2,0.1,0.5,0.3,0.9,0.3c0.2,0,0.8,0.1,1.1-0.3c0.1-0.2,0.1-0.5,0-0.6c-0.2-0.2-0.6-0.1-0.8,0.1
		c-0.3,0.3-0.1,1.2,0.4,1.6c0.8,0.7,2.3,0.4,2.5-0.2c0.1-0.2,0-0.6-0.3-0.7c-0.3-0.2-0.8,0.1-0.9,0.4c-0.1,0.5,0.5,1,1,1.3
		c0.1,0,0.3,0.1,0.6,0.2c0.6,0,1.3-0.2,1.4-0.5c0-0.2-0.2-0.5-0.4-0.6c-0.2-0.1-0.5-0.1-0.7,0.1c-0.2,0.3,0.2,1.1,0.8,1.5
		c0.3,0.1,0.5,0.2,0.9,0.2c0.5,0,0.8,0,0.9-0.2s0.1-0.6-0.1-0.7c-0.2-0.1-0.4-0.1-0.6,0c-0.3,0.3-0.1,1.5,0.5,1.7
		c0.2,0.1,0.3,0,0.9,0s0.7,0.2,1,0.1c0.3-0.1,0.6-0.7,0.4-1c-0.2-0.4-1-0.4-1.4,0s-0.4,1.2,0.1,1.5c0.3,0.2,0.7,0.2,1.1,0.1"/>
	<path class="st2" d="M88.5,46.4"/>
	<path class="st7" d="M88.6,46.9"/>
	<path class="st7" d="M91.9,47.6"/>
	<path class="st7" d="M91.5,46.3"/>
</g>
<g id="Lag_5">
</g>
<g>
	<g>
	</g>
</g>
</svg>
