<?xml version="1.0" encoding="utf-8"?>
<!-- Generator: Adobe Illustrator 26.0.1, SVG Export Plug-In . SVG Version: 6.00 Build 0)  -->
<svg version="1.1" xmlns="http://www.w3.org/2000/svg" xmlns:xlink="http://www.w3.org/1999/xlink" x="0px" y="0px"
	 viewBox="0 0 368.5 226.8" style="enable-background:new 0 0 368.5 226.8;" xml:space="preserve">
<style type="text/css">
	.st0{fill:#FFFFFF;}
	.st1{fill:none;stroke:#D98841;stroke-width:5;stroke-miterlimit:10;}
	.st2{display:none;}
</style>
<g id="Lag_2">
	<rect x="-142.3" y="-4845.8" class="st0" width="1916.9" height="9608.5"/>
	<path class="st1" d="M-45.5-3777.2c14.7-9.5,165.9-104.7,304.9-38.9c108.8,51.4,142.9,169.5,162.9,238.7c58.6,202.4-8,388,0,389.9
		c12.6,3,21.2-494,271.2-628.6c250.9-135.1,758.4,87.5,879.1,458.1c11.6,35.5,66.2,215.8-16.5,404.5
		c-117.3,267.6-419.7,343.9-544,375.3C549.8-2461.6,38.3-2663.1,42.3-2783c2.4-74.4,204.5-155.6,263.2-102.3
		C420.9-2780.5-118-2245.1,76.4-1813.1c22,48.9,60.5,134.3,149.3,184.3c307,172.8,691.9-372.7,1065.5-242.4
		c260.5,90.9,376,461.7,393.6,677.1c4.6,56.9,13.6,239.3-77.9,433.5c-34.4,73.2-75.3,157.3-163.5,214.2
		c-112.6,72.7-239.4,60.4-327,50.7c-668.7-73.8-764.4-126.7-879.2-60C50.9-447.4-25-117.1,86.1,29.2
		c98.9,130.2,338.2,104.3,630,72.8c384.5-41.6,473.7-141.7,627.4-72.8c196.8,88.3,333,379.4,253.4,580
		c-112.4,283.2-614.3,282.8-677.9,282c-362.9-4.5-518.2-195.3-704.7-90.2c-116.2,65.5-156.1,196.1-203,349.5
		c-51.1,167.2-116.1,527,30.8,618.6c107.6,67.1,214.2-81.5,516.6-136.5c80.7-14.7,479.4-87.2,760.3,131.6
		c183.9,143.2,238.2,349.5,321.5,666c43.2,163.9,55.1,308.5,78.9,597.6c44.9,544.1-6.1,651.2-44.6,710.3
		c-104.6,160.6-279.9,218.3-360.7,243.7C709.3,4171.9,81.4,3636.6,5.8,3749.4c-29.4,43.8,40,162.4,85.2,159.3
		c47.3-3.3,75.3-140.2,89.6-232.6"/>
</g>
<g id="Lag_1" class="st2">
	
		<image style="display:inline;overflow:visible;" width="7980" height="40060" xlink:href="baggrund-3.jpg"  transform="matrix(0.24 0 0 0.24 -144.8837 -4845.2588)">
	</image>
</g>
</svg>
