<?xml version="1.0" encoding="utf-8"?>
<!-- Generator: Adobe Illustrator 26.0.1, SVG Export Plug-In . SVG Version: 6.00 Build 0)  -->
<svg version="1.1" id="Lag_2_00000091694636011594223800000011568043053965604236_"
	 xmlns="http://www.w3.org/2000/svg" xmlns:xlink="http://www.w3.org/1999/xlink" x="0px" y="0px" viewBox="0 0 1916.9 8192"
	 style="enable-background:new 0 0 1916.9 8192;" xml:space="preserve">
<style type="text/css">
	.st0{fill:none;stroke:#D98841;stroke-width:4.2629;stroke-miterlimit:8.5258;}
</style>
<path class="st0" d="M169.1,136.5c59.8-6.7,149.8-16.3,259.1-25.9c764.3-67.3,1146.5-101,1304.3,60.5
	c221.3,226.4,148.7,748.6-51.8,855.1c-81.7,43.4-127.1-12.8-414.6-34.6c-75-5.7-226.6-1-526.9,8.6c-399.2,12.8-482.4,19.7-486.1,0.4
	c-6-31.8,207.4-108.2,224.4-79.3c16.8,28.5-196.5,114-282.5,320.8c-81.2,195.2-33,460.2,87.2,510c83.5,34.6,140.9-60,318.8-121.3
	c218.7-75.3,414.7-13.2,716.9,76.3c273.3,80.9,408.7,125.6,501,251.9c116.5,159.4,174,445.6,51.8,596
	c-300.7,370-1474.3-348-1762.1,25.9c-18.5,24-18.3,135.8-25.9,354.1c-7.7,219.6,5.5,243.9,17.3,259.1
	c66.4,86.1,209.2,41.7,613.3,8.6c316.8-26,249.8,2.4,535.5-25.9c377.5-37.4,504.2-80,570.1,0c58.7,71.2,65.7,235.1,29.3,360.2
	c-1.4,5-2.6,8.8-3.4,11.2c0,0-57.5,182.8-250.5,311c-123,81.7-267.7,64.7-751.5,8.6c-461.8-53.6-694.3-78.4-768.7,17.3
	c-39.3,50.5-42.4,140.2-43.2,319.6c-0.9,189.5-1.3,284.2,43.2,336.9c94.7,112,311.7,37.4,604.6-8.6
	c392.7-61.7,880.7-140,1114.3,86.4c202,195.8,219.4,614.5,43.2,794.7c-12.8,13.1-26.1,21.4-51.7,38.9
	c-205.8,140.9-483.5,217.3-527,151.1c-40.8-62,106.1-276.7,198.7-259.1c86.7,16.4,124.6,236.3,138.2,518.3"/>
</svg>
