<?xml version="1.0" encoding="utf-8"?>
<!-- Generator: Adobe Illustrator 26.0.1, SVG Export Plug-In . SVG Version: 6.00 Build 0)  -->
<svg version="1.1" id="Lag_2_00000091694636011594223800000011568043053965604236_"
	 xmlns="http://www.w3.org/2000/svg" xmlns:xlink="http://www.w3.org/1999/xlink" x="0px" y="0px" viewBox="0 0 1916.9 8192"
	 style="enable-background:new 0 0 1916.9 8192;" xml:space="preserve">
<style type="text/css">
	.st0{fill:none;stroke:#D98841;stroke-width:4.2629;stroke-miterlimit:8.5258;}
</style>
<path class="st0" d="M1032.9,749.8c12.5-9.7-818.2,555-699.6,621.9c92.7,52.3,587.6-312.3,604.6-241.9
	c49.9,205.9,485.5-140.1,492.3-138.2c10.7,3.1-74.9,655.2,138.2,518.3c213.9-137.4-102.8-377,0,0c9.9,36.1,217.4-243.8,146.8-51.8
	c-100.1,272.2-451.7,350.2-557.7,382.1c-394.2,118.7-830.2-86.3-826.9-208.2c2.1-75.7,174.4-158.3,224.4-104.1
	c98.4,106.6-361,651.3-195.3,1090.7c18.8,49.7,51.5,136.6,127.3,187.5c261.7,175.8,589.9-379.2,908.4-246.6
	c222.1,92.4,320.6,469.6,335.5,688.7c3.9,57.8,11.6,243.4-66.4,441c-29.4,74.4-64.2,160-139.4,217.9c-96,73.9-204.1,61.5-278.8,51.6
	c-570.1-75.1-651.7-128.9-749.6-61c-158.8,110.1-223.5,446.1-128.8,594.9c84.3,132.4,288.4,106.1,537.1,74
	c327.8-42.3,403.9-144.2,534.9-74c167.8,89.9,283.9,386,216.1,590c-95.8,288.1-523.8,287.7-578,286.9
	c-309.4-4.6-441.8-198.6-600.8-91.8c-99.1,66.6-133.1,199.5-173,355.5c-43.5,170.1-99,536.1,26.3,629.3
	c91.8,68.2,182.6-82.9,440.5-138.8c68.8-14.9,408.7-88.7,648.2,133.9c156.8,145.6,203.1,355.5,274.1,677.5
	c36.8,166.8,47,313.8,67.3,607.9c38.3,553.5-5.2,662.4-38.1,722.5c-89.2,163.4-238.7,222.1-307.5,247.9
	C899.4,8706.7,364.1,8162.2,299.6,8277c-25,44.6,34.1,165.2,72.6,162c40.3-3.4,64.2-142.7,76.3-236.6"/>
</svg>
